<svg width="80" height="80" viewBox="0 0 80 80" fill="none" xmlns="http://www.w3.org/2000/svg">
  <!-- Background circle -->
  <circle cx="40" cy="40" r="38" fill="#fef3c7" stroke="#f59e0b" stroke-width="2"/>
  
  <!-- Chart background -->
  <rect x="15" y="20" width="50" height="35" rx="4" fill="#ffffff" stroke="#e5e7eb" stroke-width="1.5"/>
  
  <!-- Bar chart -->
  <rect x="20" y="40" width="6" height="10" fill="#3b82f6"/>
  <rect x="28" y="35" width="6" height="15" fill="#10b981"/>
  <rect x="36" y="30" width="6" height="20" fill="#f59e0b"/>
  <rect x="44" y="25" width="6" height="25" fill="#ef4444"/>
  <rect x="52" y="32" width="6" height="18" fill="#8b5cf6"/>
  
  <!-- Trend line -->
  <path d="M20 45 L28 40 L36 35 L44 30 L52 35 L60 32" stroke="#ec4899" stroke-width="2" fill="none"/>
  <circle cx="20" cy="45" r="2" fill="#ec4899"/>
  <circle cx="28" cy="40" r="2" fill="#ec4899"/>
  <circle cx="36" cy="35" r="2" fill="#ec4899"/>
  <circle cx="44" cy="30" r="2" fill="#ec4899"/>
  <circle cx="52" cy="35" r="2" fill="#ec4899"/>
  <circle cx="60" cy="32" r="2" fill="#ec4899"/>
  
  <!-- AI brain icon -->
  <circle cx="55" cy="25" r="6" fill="#ec4899" opacity="0.9"/>
  <path d="M52 23 Q55 21 58 23 Q56 26 55 25 Q54 26 52 23 Z" fill="#ffffff"/>
  <circle cx="53.5" cy="24" r="0.8" fill="#ec4899"/>
  <circle cx="56.5" cy="24" r="0.8" fill="#ec4899"/>
  
  <!-- Dashboard elements -->
  <rect x="18" y="58" width="12" height="8" rx="2" fill="#f3f4f6" stroke="#d1d5db"/>
  <rect x="19" y="60" width="10" height="2" rx="1" fill="#6b7280"/>
  <rect x="19" y="63" width="7" height="1" rx="0.5" fill="#9ca3af"/>
  
  <rect x="33" y="58" width="12" height="8" rx="2" fill="#f3f4f6" stroke="#d1d5db"/>
  <circle cx="39" cy="62" r="2" fill="#10b981"/>
  
  <rect x="48" y="58" width="12" height="8" rx="2" fill="#f3f4f6" stroke="#d1d5db"/>
  <rect x="50" y="60" width="8" height="1" rx="0.5" fill="#3b82f6"/>
  <rect x="50" y="62" width="6" height="1" rx="0.5" fill="#3b82f6"/>
  <rect x="50" y="64" width="4" height="1" rx="0.5" fill="#3b82f6"/>
</svg>
