<?xml version="1.0" encoding="UTF-8"?>
<svg width="600" height="400" viewBox="0 0 600 400" fill="none" xmlns="http://www.w3.org/2000/svg">
  <!-- Background gradient -->
  <defs>
    <linearGradient id="paint0_linear" x1="0" y1="0" x2="600" y2="400" gradientUnits="userSpaceOnUse">
      <stop stop-color="#EFF6FF" stop-opacity="0.1" />
      <stop offset="1" stop-color="#DBEAFE" stop-opacity="0.1" />
    </linearGradient>
    
    <linearGradient id="paint1_linear" x1="300" y1="50" x2="300" y2="350" gradientUnits="userSpaceOnUse">
      <stop stop-color="#3B82F6" />
      <stop offset="1" stop-color="#1E40AF" />
    </linearGradient>
    
    <linearGradient id="paint2_linear" x1="150" y1="100" x2="150" y2="300" gradientUnits="userSpaceOnUse">
      <stop stop-color="#10B981" />
      <stop offset="1" stop-color="#059669" />
    </linearGradient>
    
    <linearGradient id="paint3_linear" x1="450" y1="100" x2="450" y2="300" gradientUnits="userSpaceOnUse">
      <stop stop-color="#8B5CF6" />
      <stop offset="1" stop-color="#6D28D9" />
    </linearGradient>
    
    <filter id="shadow" x="0" y="0" width="600" height="400" filterUnits="userSpaceOnUse" color-interpolation-filters="sRGB">
      <feFlood flood-opacity="0" result="BackgroundImageFix" />
      <feColorMatrix in="SourceAlpha" type="matrix" values="0 0 0 0 0 0 0 0 0 0 0 0 0 0 0 0 0 0 127 0" />
      <feOffset dy="4" />
      <feGaussianBlur stdDeviation="8" />
      <feColorMatrix type="matrix" values="0 0 0 0 0 0 0 0 0 0 0 0 0 0 0 0 0 0 0.15 0" />
      <feBlend mode="normal" in2="BackgroundImageFix" result="effect1_dropShadow" />
      <feBlend mode="normal" in="SourceGraphic" in2="effect1_dropShadow" result="shape" />
    </filter>
  </defs>
  
  <!-- Main background -->
  <rect width="600" height="400" fill="url(#paint0_linear)" />
  
  <!-- Chatbot component -->
  <g filter="url(#shadow)">
    <rect x="50" y="50" width="200" height="300" rx="16" fill="white" />
    <rect x="50" y="50" width="200" height="50" rx="16" fill="url(#paint1_linear)" />
    <text x="70" y="82" font-family="Arial" font-size="16" font-weight="bold" fill="white">AI Chat</text>
    
    <!-- Chat bubbles -->
    <rect x="70" y="120" width="120" height="40" rx="8" fill="#F1F5F9" />
    <text x="85" y="145" font-family="Arial" font-size="12" fill="#334155">Hello AI!</text>
    
    <rect x="110" y="180" width="120" height="40" rx="8" fill="#DBEAFE" />
    <text x="125" y="205" font-family="Arial" font-size="12" fill="#1E40AF">How can I help?</text>
    
    <rect x="70" y="240" width="120" height="40" rx="8" fill="#F1F5F9" />
    <text x="85" y="265" font-family="Arial" font-size="12" fill="#334155">Tell me a joke</text>
    
    <!-- Input field -->
    <rect x="70" y="300" width="160" height="30" rx="15" fill="#F8FAFC" stroke="#E2E8F0" />
    <text x="85" y="320" font-family="Arial" font-size="12" fill="#94A3B8">Type a message...</text>
  </g>
  
  <!-- Autosuggest component -->
  <g filter="url(#shadow)">
    <rect x="350" y="50" width="200" height="120" rx="16" fill="white" />
    <rect x="350" y="50" width="200" height="50" rx="16" fill="url(#paint2_linear)" />
    <text x="370" y="82" font-family="Arial" font-size="16" font-weight="bold" fill="white">AI Autosuggest</text>
    
    <!-- Input field -->
    <rect x="370" y="110" width="160" height="30" rx="15" fill="#F8FAFC" stroke="#E2E8F0" />
    <text x="385" y="130" font-family="Arial" font-size="12" fill="#334155">Search for...</text>
    
    <!-- Dropdown -->
    <rect x="370" y="140" width="160" height="90" rx="8" fill="white" stroke="#E2E8F0" />
    <rect x="370" y="140" width="160" height="30" rx="8" fill="#DBEAFE" />
    <text x="385" y="160" font-family="Arial" font-size="12" fill="#1E40AF">Suggestion 1</text>
    <text x="385" y="190" font-family="Arial" font-size="12" fill="#64748B">Suggestion 2</text>
    <text x="385" y="220" font-family="Arial" font-size="12" fill="#64748B">Suggestion 3</text>
  </g>
  
  <!-- SmartForm component -->
  <g filter="url(#shadow)">
    <rect x="350" y="230" width="200" height="120" rx="16" fill="white" />
    <rect x="350" y="230" width="200" height="50" rx="16" fill="url(#paint3_linear)" />
    <text x="370" y="262" font-family="Arial" font-size="16" font-weight="bold" fill="white">AI SmartForm</text>
    
    <!-- Form fields -->
    <rect x="370" y="290" width="160" height="30" rx="4" fill="#F8FAFC" stroke="#10B981" stroke-width="2" />
    <text x="385" y="310" font-family="Arial" font-size="12" fill="#334155">Valid input</text>
    <circle cx="520" y="305" r="8" fill="#10B981" />
    <path d="M516 305 L519 308 L524 302" stroke="white" stroke-width="2" stroke-linecap="round" stroke-linejoin="round" />
    
    <rect x="370" y="330" width="160" height="30" rx="4" fill="#F8FAFC" stroke="#EF4444" stroke-width="2" />
    <text x="385" y="350" font-family="Arial" font-size="12" fill="#334155">Invalid input</text>
    <circle cx="520" y="345" r="8" fill="#EF4444" />
    <path d="M517 342 L523 348 M523 342 L517 348" stroke="white" stroke-width="2" stroke-linecap="round" />
  </g>
  
  <!-- Decorative elements -->
  <circle cx="300" cy="200" r="150" fill="url(#paint1_linear)" opacity="0.05" />
  <circle cx="300" cy="200" r="100" fill="url(#paint2_linear)" opacity="0.05" />
  <circle cx="300" cy="200" r="50" fill="url(#paint3_linear)" opacity="0.05" />
  
  <!-- Vue logo stylized -->
  <path d="M300 50 L330 100 L300 150 L270 100 Z" fill="#41B883" opacity="0.2" />
  <path d="M300 50 L315 75 L300 100 L285 75 Z" fill="#35495E" opacity="0.2" />
</svg>
