<svg width="80" height="80" viewBox="0 0 80 80" fill="none" xmlns="http://www.w3.org/2000/svg">
  <!-- Background circle -->
  <circle cx="40" cy="40" r="38" fill="#fef3c7" stroke="#f59e0b" stroke-width="2"/>
  
  <!-- Image frame -->
  <rect x="15" y="20" width="35" height="25" rx="3" fill="#ffffff" stroke="#e5e7eb" stroke-width="1.5"/>
  
  <!-- Image content (mountain and sun) -->
  <circle cx="45" cy="27" r="3" fill="#fbbf24"/>
  <path d="M20 40 L28 32 L35 38 L42 30 L50 38 V42 H20 Z" fill="#10b981"/>
  <path d="M28 32 L35 38 L42 30 L50 38 V40 H20 Z" fill="#34d399"/>
  
  <!-- AI brain icon -->
  <circle cx="60" cy="25" r="8" fill="#ec4899" opacity="0.9"/>
  <path d="M56 22 Q60 20 64 22 Q62 26 60 25 Q58 26 56 22 Z" fill="#ffffff"/>
  <circle cx="58" cy="24" r="1" fill="#ec4899"/>
  <circle cx="62" cy="24" r="1" fill="#ec4899"/>
  
  <!-- Text lines representing caption -->
  <rect x="15" y="50" width="45" height="2" rx="1" fill="#6b7280"/>
  <rect x="15" y="55" width="38" height="2" rx="1" fill="#9ca3af"/>
  <rect x="15" y="60" width="42" height="2" rx="1" fill="#9ca3af"/>
  <rect x="15" y="65" width="30" height="2" rx="1" fill="#d1d5db"/>
  
  <!-- Arrow connecting image to text -->
  <path d="M40 45 L40 48" stroke="#ec4899" stroke-width="2" marker-end="url(#arrowhead)"/>
  
  <!-- Arrow marker -->
  <defs>
    <marker id="arrowhead" markerWidth="10" markerHeight="7" refX="9" refY="3.5" orient="auto">
      <polygon points="0 0, 10 3.5, 0 7" fill="#ec4899"/>
    </marker>
  </defs>
</svg>
